<svg xmlns="http://www.w3.org/2000/svg" xmlns:xlink="http://www.w3.org/1999/xlink" width="65" height="65" viewBox="0 0 65 65">
  <defs>
    <clipPath id="clip-path">
      <path id="Path_2091" data-name="Path 2091" d="M0,0H65V65H0Z" fill="#ab0f26"/>
    </clipPath>
  </defs>
  <g id="ic_timeline_24px" clip-path="url(#clip-path)">
    <path id="Path_2090" data-name="Path 2090" d="M60.583,11.417a5.433,5.433,0,0,1-5.417,5.417,4.6,4.6,0,0,1-1.381-.19l-9.642,9.615a4.784,4.784,0,0,1,.19,1.408,5.417,5.417,0,1,1-10.833,0,4.784,4.784,0,0,1,.19-1.408l-6.906-6.906a5.326,5.326,0,0,1-2.817,0L11.644,31.7a4.6,4.6,0,0,1,.19,1.381,5.417,5.417,0,1,1-5.417-5.417,4.6,4.6,0,0,1,1.381.19l12.35-12.323a4.784,4.784,0,0,1-.19-1.408,5.417,5.417,0,0,1,10.833,0,4.784,4.784,0,0,1-.19,1.408l6.906,6.906a5.326,5.326,0,0,1,2.817,0L49.94,12.8a4.6,4.6,0,0,1-.19-1.381,5.417,5.417,0,1,1,10.833,0Z" transform="translate(1.708 10.25)" fill="#ab0f26"/>
  </g>
</svg>
