<svg xmlns="http://www.w3.org/2000/svg" viewBox="0 0 64 64" aria-hidden="true">
  <path d="M64,29.58V57.93a5.74,5.74,0,0,1-5.72,5.72H5.72a5.54,5.54,0,0,1-4-1.68,5.54,5.54,0,0,1-1.68-4V29.58a19.09,19.09,0,0,0,3.61,3.1Q16.54,41.47,21.36,45c1.36,1,2.46,1.78,3.3,2.35A20.17,20.17,0,0,0,28,49.05a10.22,10.22,0,0,0,3.92.88H32A10.27,10.27,0,0,0,36,49.05a20.47,20.47,0,0,0,3.37-1.7q1.27-.84,3.3-2.34,6.07-4.41,17.79-12.33A19.92,19.92,0,0,0,64,29.58Zm0-10.5a9.49,9.49,0,0,1-1.75,5.39,16.85,16.85,0,0,1-4.36,4.39L41.18,40.47c-.24.16-.74.53-1.52,1.09s-1.41,1-1.93,1.35-1.13.74-1.85,1.17a11,11,0,0,1-2.06,1,5.65,5.65,0,0,1-1.78.32H32A5.71,5.71,0,0,1,30.18,45a11,11,0,0,1-2.05-1q-1.1-.64-1.86-1.17c-.51-.34-1.15-.8-1.93-1.35l-1.51-1.09q-3.25-2.3-9.36-6.52T6.15,28.86A17.4,17.4,0,0,1,2,24.74a8.41,8.41,0,0,1-2-4.88,7.21,7.21,0,0,1,1.5-4.64,5.09,5.09,0,0,1,4.23-1.86H58.29a5.55,5.55,0,0,1,4,1.68,5.49,5.49,0,0,1,1.69,4Z"/>
</svg>
