<svg id="ic_remove_red_eye_24px" xmlns="http://www.w3.org/2000/svg" width="58" height="58" viewBox="0 0 58 58">
  <path id="Path_722" data-name="Path 722" d="M0,0H58V58H0Z" fill="none"/>
  <path id="Path_723" data-name="Path 723" d="M27.583,4.5A28.581,28.581,0,0,0,1,22.625a28.557,28.557,0,0,0,53.167,0A28.581,28.581,0,0,0,27.583,4.5Zm0,30.208A12.083,12.083,0,1,1,39.667,22.625,12.088,12.088,0,0,1,27.583,34.708Zm0-19.333a7.25,7.25,0,1,0,7.25,7.25A7.24,7.24,0,0,0,27.583,15.375Z" transform="translate(1.417 6.375)" fill="#ab0f26"/>
</svg>
