<svg xmlns="http://www.w3.org/2000/svg" viewBox="0 0 64 64" aria-hidden="true">
  <path d="M25.19,64V34.86H15.74c-.4,0-.4,0-.4-.4V23.9c0-.32,0-.4.4-.4h9.45V14.31a15.9,15.9,0,0,1,1.54-6.78,12.24,12.24,0,0,1,6.59-6.34A15.33,15.33,0,0,1,39.55,0C42,0,44.48.15,46.93.24A5.22,5.22,0,0,1,48.3.36c.44.13.36,0,.34.36v9.55c0,.32,0,.4-.38.4H42.55A13.45,13.45,0,0,0,40,11a3.45,3.45,0,0,0-1.92,1,3.51,3.51,0,0,0-1,2,11.53,11.53,0,0,0-.22,1.94v7.44H47.69c.44,0,.46,0,.4.42q-.35,2.84-.76,5.64c-.21,1.55-.4,3.15-.59,4.74,0,.59,0,.59-.66.59H37V63.89Z"/>
</svg>