<svg xmlns="http://www.w3.org/2000/svg" viewBox="0 0 29.24 29.81"><title>google</title><g id="Layer_2" data-name="Layer 2"><g id="Layer_1-2" data-name="Layer 1"><g id="fGs15O.tif"><path d="M16.22,0a16,16,0,0,1,3.41.76,13.16,13.16,0,0,1,5.18,3C23.42,5.2,20.59,8,20.53,7.92A8.69,8.69,0,0,0,7.28,10.34,9,9,0,0,0,14,23.9a8.12,8.12,0,0,0,7.82-3,6.7,6.7,0,0,0,1.27-3H15V12.17h14a15.35,15.35,0,0,1,.25,4.33,14.54,14.54,0,0,1-2.68,7.78,13.16,13.16,0,0,1-9.34,5.38,14.45,14.45,0,0,1-12.5-4C.36,21.42-1,16.24.77,10.49S6.6,1.08,12.58.22A22.16,22.16,0,0,1,16.22,0Z"/></g></g></g></svg>