<svg data-name="Layer 1" xmlns="http://www.w3.org/2000/svg" viewBox="0 0 64 64" aria-hidden='true'>
  <path  d="M14.53,22.55V63.81H.79V22.55ZM15.4,9.82a6.54,6.54,0,0,1-2.1,5.07,7.8,7.8,0,0,1-5.64,2H7.58a7.48,7.48,0,0,1-5.5-2A6.8,6.8,0,0,1,0,9.82a6.7,6.7,0,0,1,2.15-5.1,7.79,7.79,0,0,1,5.59-2,7.6,7.6,0,0,1,5.54,2A6.94,6.94,0,0,1,15.4,9.82ZM64,40.17V63.81H50.25V41.75a12,12,0,0,0-1.69-6.85,5.89,5.89,0,0,0-5.26-2.48,6.7,6.7,0,0,0-4.39,1.43,8.81,8.81,0,0,0-2.64,3.57,9.88,9.88,0,0,0-.46,3.37v23H22.11q.09-16.61.08-26.93t0-12.33l0-2h13.7v6h-.09a18.59,18.59,0,0,1,1.71-2.33A17.28,17.28,0,0,1,39.78,24a10.9,10.9,0,0,1,3.62-1.81,16.73,16.73,0,0,1,4.77-.64,14.77,14.77,0,0,1,11.45,4.73A19.82,19.82,0,0,1,64,40.17Z"/>
</svg>
