<?xml version="1.0" encoding="utf-8"?>
<!-- Generator: Adobe Illustrator 26.3.1, SVG Export Plug-In . SVG Version: 6.00 Build 0)  -->
<svg version="1.1" id="Layer_1" xmlns="http://www.w3.org/2000/svg" xmlns:xlink="http://www.w3.org/1999/xlink" x="0px" y="0px"
	 viewBox="0 0 1100.8 242.9" style="enable-background:new 0 0 1100.8 242.9;" xml:space="preserve">
<style type="text/css">
	.st0{fill:#FFFFFF;}
</style>
<g>
	<polygon class="st0" points="20.5,183 20.5,221.1 177.2,60.1 177.2,22 	"/>
	<path class="st0" d="M115.2,47.7c5-5.1,5-13.9,0-19c-5-5.1-13.5-5.1-18.5,0l-76.2,79v38.1L115.2,47.7z"/>
	<path class="st0" d="M80.3,196.9c-5,5.1-5,13.9,0,19c5,5.1,13.5,5.1,18.5,0l78.4-80.5V97.4L80.3,196.9z"/>
	<g>
		<path class="st0" d="M263.8,76.1l-2.4-8c-0.1-0.2-0.2-0.3-0.4-0.3h-20c-0.2,0-0.3,0.1-0.4,0.3l-2.4,8c-0.2,0.5-0.5,0.8-1.1,0.8
			h-10.3c-0.3,0-0.6-0.1-0.7-0.3c-0.2-0.2-0.2-0.5-0.1-0.9l17.6-55c0.2-0.5,0.5-0.8,1.1-0.8h12.8c0.5,0,0.9,0.3,1.1,0.8l17.6,55
			c0.1,0.1,0.1,0.2,0.1,0.4c0,0.5-0.3,0.7-0.9,0.7h-10.3C264.3,76.9,263.9,76.6,263.8,76.1z M243.7,58.9h14.3c0.3,0,0.4-0.2,0.3-0.5
			l-7.3-24.2c-0.1-0.2-0.1-0.3-0.2-0.3c-0.1,0-0.2,0.1-0.2,0.3l-7.2,24.2C243.4,58.8,243.5,58.9,243.7,58.9z"/>
		<path class="st0" d="M290,76.6c-0.2-0.2-0.3-0.4-0.3-0.7v-55c0-0.3,0.1-0.5,0.3-0.7c0.2-0.2,0.4-0.3,0.7-0.3H311
			c4.1,0,7.6,0.7,10.7,2.2c3.1,1.4,5.4,3.5,7.1,6.1c1.7,2.6,2.5,5.6,2.5,9v22.5c0,3.4-0.8,6.4-2.5,9c-1.7,2.6-4.1,4.6-7.1,6.1
			c-3.1,1.4-6.6,2.2-10.7,2.2h-20.3C290.4,76.9,290.2,76.8,290,76.6z M301.6,67.1h9.8c2.5,0,4.5-0.8,6.1-2.5
			c1.5-1.7,2.3-3.9,2.4-6.8V39.1c0-2.8-0.8-5.1-2.3-6.8c-1.5-1.7-3.6-2.5-6.2-2.5h-9.8c-0.3,0-0.4,0.1-0.4,0.4v36.5
			C301.2,66.9,301.3,67.1,301.6,67.1z"/>
		<path class="st0" d="M358.5,76.1l-16.8-55l-0.1-0.3c0-0.5,0.3-0.8,0.9-0.8h10.3c0.6,0,1,0.3,1.1,0.8l10.8,39.7
			c0.1,0.2,0.1,0.2,0.2,0.2c0.1,0,0.2-0.1,0.2-0.2l10.7-39.7c0.2-0.5,0.5-0.8,1.1-0.8h10c0.3,0,0.6,0.1,0.7,0.3
			c0.2,0.2,0.2,0.5,0.1,0.8l-17,55c-0.2,0.5-0.5,0.8-1.1,0.8h-10.3C359,76.9,358.6,76.6,358.5,76.1z"/>
		<path class="st0" d="M401.8,76.6c-0.2-0.2-0.3-0.4-0.3-0.7v-55c0-0.3,0.1-0.5,0.3-0.7c0.2-0.2,0.4-0.3,0.7-0.3h9.5
			c0.3,0,0.5,0.1,0.7,0.3c0.2,0.2,0.3,0.4,0.3,0.7v55c0,0.3-0.1,0.5-0.3,0.7c-0.2,0.2-0.4,0.3-0.7,0.3h-9.5
			C402.2,76.9,402,76.8,401.8,76.6z"/>
		<path class="st0" d="M437.5,75.5c-3.3-1.4-5.8-3.4-7.5-5.9c-1.8-2.6-2.6-5.6-2.6-9v-1.8c0-0.3,0.1-0.5,0.3-0.7
			c0.2-0.2,0.4-0.3,0.7-0.3h9.3c0.3,0,0.5,0.1,0.7,0.3c0.2,0.2,0.3,0.4,0.3,0.7V60c0,2.2,1,4,3,5.5c2,1.5,4.7,2.2,8.1,2.2
			c2.9,0,5-0.6,6.4-1.8c1.4-1.2,2.1-2.7,2.1-4.5c0-1.3-0.4-2.4-1.3-3.3c-0.9-0.9-2-1.7-3.5-2.4c-1.5-0.7-3.9-1.6-7.1-2.8
			c-3.6-1.2-6.7-2.5-9.2-3.8c-2.5-1.3-4.6-3.1-6.3-5.3s-2.6-5-2.6-8.3c0-3.3,0.8-6.1,2.5-8.5c1.7-2.4,4-4.3,7-5.6
			c3-1.3,6.4-2,10.3-2c4.1,0,7.8,0.7,11,2.2c3.2,1.5,5.7,3.5,7.6,6.1c1.8,2.6,2.7,5.7,2.7,9.2V38c0,0.3-0.1,0.5-0.3,0.7
			c-0.2,0.2-0.4,0.3-0.7,0.3H459c-0.3,0-0.5-0.1-0.7-0.3c-0.2-0.2-0.3-0.4-0.3-0.7v-0.7c0-2.3-0.9-4.2-2.8-5.8
			c-1.9-1.6-4.4-2.4-7.7-2.4c-2.6,0-4.5,0.5-6,1.6c-1.4,1.1-2.2,2.6-2.2,4.5c0,1.4,0.4,2.5,1.3,3.4c0.8,0.9,2.1,1.7,3.7,2.5
			c1.7,0.7,4.2,1.7,7.7,3c3.9,1.4,6.9,2.7,9.1,3.7c2.2,1.1,4.2,2.7,5.9,4.8c1.8,2.1,2.6,4.9,2.6,8.3c0,5.1-1.9,9.1-5.6,12.1
			c-3.7,3-8.8,4.4-15.2,4.4C444.6,77.6,440.8,76.9,437.5,75.5z"/>
		<path class="st0" d="M493.4,75.2c-3.2-1.7-5.7-4.2-7.5-7.3c-1.8-3.1-2.7-6.7-2.7-10.8V39.7c0-4,0.9-7.6,2.7-10.7s4.3-5.5,7.5-7.2
			c3.2-1.7,7-2.6,11.2-2.6c4.3,0,8,0.9,11.3,2.6c3.2,1.7,5.7,4.1,7.5,7.2s2.7,6.6,2.7,10.7v17.4c0,4.1-0.9,7.7-2.7,10.8
			c-1.8,3.1-4.3,5.6-7.5,7.3c-3.2,1.7-7,2.6-11.3,2.6C500.4,77.8,496.6,76.9,493.4,75.2z M511.8,65.1c1.8-1.9,2.8-4.4,2.8-7.6V39.6
			c0-3.1-0.9-5.7-2.7-7.6c-1.8-1.9-4.2-2.9-7.3-2.9c-3,0-5.4,1-7.2,2.9c-1.8,1.9-2.7,4.5-2.7,7.6v17.9c0,3.1,0.9,5.7,2.7,7.6
			c1.8,1.9,4.2,2.8,7.2,2.8C507.6,68,510,67,511.8,65.1z"/>
		<path class="st0" d="M571.5,76.2l-10.2-22.5c-0.1-0.2-0.3-0.3-0.5-0.3h-7.6c-0.3,0-0.4,0.1-0.4,0.4v22.2c0,0.3-0.1,0.5-0.3,0.7
			c-0.2,0.2-0.4,0.3-0.7,0.3h-9.5c-0.3,0-0.5-0.1-0.7-0.3c-0.2-0.2-0.3-0.4-0.3-0.7v-55c0-0.3,0.1-0.5,0.3-0.7
			c0.2-0.2,0.4-0.3,0.7-0.3h23.3c3.5,0,6.5,0.7,9.2,2.1c2.6,1.4,4.7,3.4,6.1,6c1.4,2.6,2.2,5.6,2.2,9c0,3.7-0.9,6.8-2.8,9.5
			c-1.8,2.6-4.4,4.5-7.7,5.6c-0.3,0.1-0.4,0.3-0.2,0.6l11.1,23c0.1,0.2,0.2,0.4,0.2,0.5c0,0.4-0.3,0.7-0.9,0.7h-10
			C572.1,76.9,571.7,76.7,571.5,76.2z M552.8,30.2v13.9c0,0.3,0.1,0.4,0.4,0.4h10.7c2.3,0,4.1-0.7,5.6-2c1.4-1.4,2.2-3.1,2.2-5.3
			c0-2.2-0.7-3.9-2.2-5.3c-1.4-1.4-3.3-2.1-5.6-2.1h-10.7C553,29.8,552.8,29.9,552.8,30.2z"/>
	</g>
	<g>
		<path class="st0" d="M235.1,154.7c-3.2-1.7-5.7-4-7.4-7c-1.8-3-2.6-6.5-2.6-10.5V119c0-4,0.9-7.5,2.6-10.5c1.8-3,4.2-5.4,7.4-7
			c3.2-1.7,6.9-2.5,11.1-2.5c4.1,0,7.8,0.8,10.9,2.4c3.2,1.6,5.6,3.8,7.4,6.6c1.8,2.8,2.6,5.9,2.6,9.3v0.6c0,0.3-0.1,0.5-0.3,0.7
			c-0.2,0.2-0.4,0.3-0.7,0.3h-9.5c-0.3,0-0.5-0.1-0.7-0.3c-0.2-0.2-0.3-0.4-0.3-0.7v-0.2c0-2.5-0.9-4.6-2.6-6.3
			c-1.7-1.7-4-2.6-6.9-2.6c-2.9,0-5.3,0.9-7,2.7c-1.8,1.8-2.6,4.2-2.6,7.1v18.9c0,2.9,0.9,5.3,2.8,7.1c1.9,1.8,4.3,2.7,7.2,2.7
			c2.8,0,5.1-0.7,6.8-2.2c1.7-1.5,2.5-3.6,2.5-6.2v-3.7c0-0.3-0.1-0.4-0.4-0.4h-9.1c-0.3,0-0.5-0.1-0.7-0.3
			c-0.2-0.2-0.3-0.4-0.3-0.7v-7.5c0-0.3,0.1-0.5,0.3-0.7c0.2-0.2,0.4-0.3,0.7-0.3h19.9c0.3,0,0.5,0.1,0.7,0.3
			c0.2,0.2,0.3,0.4,0.3,0.7v10.7c0,4.1-0.9,7.7-2.6,10.7c-1.7,3-4.2,5.4-7.4,7c-3.2,1.6-6.8,2.4-11,2.4
			C242,157.2,238.3,156.4,235.1,154.7z"/>
		<path class="st0" d="M315.3,155.8l-10.2-22.5c-0.1-0.2-0.3-0.3-0.5-0.3h-7.6c-0.3,0-0.4,0.1-0.4,0.4v22.2c0,0.3-0.1,0.5-0.3,0.7
			c-0.2,0.2-0.4,0.3-0.7,0.3h-9.5c-0.3,0-0.5-0.1-0.7-0.3c-0.2-0.2-0.3-0.4-0.3-0.7v-55c0-0.3,0.1-0.5,0.3-0.7
			c0.2-0.2,0.4-0.3,0.7-0.3h23.3c3.5,0,6.5,0.7,9.2,2.1c2.6,1.4,4.7,3.4,6.1,6c1.4,2.6,2.2,5.6,2.2,9c0,3.7-0.9,6.8-2.8,9.5
			c-1.8,2.6-4.4,4.5-7.7,5.6c-0.3,0.1-0.4,0.3-0.2,0.6l11.1,23c0.1,0.2,0.2,0.4,0.2,0.5c0,0.4-0.3,0.7-0.9,0.7h-10
			C315.9,156.6,315.5,156.3,315.3,155.8z M296.7,109.8v13.9c0,0.3,0.1,0.4,0.4,0.4h10.7c2.3,0,4.1-0.7,5.6-2
			c1.4-1.4,2.2-3.1,2.2-5.3c0-2.2-0.7-3.9-2.2-5.3c-1.4-1.4-3.3-2.1-5.6-2.1h-10.7C296.8,109.4,296.7,109.6,296.7,109.8z"/>
		<path class="st0" d="M353.5,154.8c-3.2-1.7-5.7-4.2-7.5-7.3c-1.8-3.1-2.7-6.7-2.7-10.8v-17.4c0-4,0.9-7.6,2.7-10.7
			s4.3-5.5,7.5-7.2c3.2-1.7,7-2.6,11.2-2.6c4.3,0,8,0.9,11.3,2.6c3.2,1.7,5.7,4.1,7.5,7.2s2.7,6.6,2.7,10.7v17.4
			c0,4.1-0.9,7.7-2.7,10.8c-1.8,3.1-4.3,5.6-7.5,7.3c-3.2,1.7-7,2.6-11.3,2.6C360.5,157.4,356.7,156.6,353.5,154.8z M371.9,144.8
			c1.8-1.9,2.8-4.4,2.8-7.6v-17.9c0-3.1-0.9-5.7-2.7-7.6c-1.8-1.9-4.2-2.9-7.3-2.9c-3,0-5.4,1-7.2,2.9c-1.8,1.9-2.7,4.5-2.7,7.6
			v17.9c0,3.1,0.9,5.7,2.7,7.6c1.8,1.9,4.2,2.8,7.2,2.8C367.7,147.6,370.1,146.7,371.9,144.8z"/>
		<path class="st0" d="M414.5,155.7l-14.4-55.1l-0.1-0.3c0-0.5,0.3-0.7,0.9-0.7H411c0.5,0,0.9,0.3,1.1,0.8l7.7,33.1
			c0.1,0.2,0.1,0.3,0.2,0.3c0.1,0,0.2-0.1,0.2-0.3l7.5-33c0.2-0.6,0.5-0.9,1.1-0.9h9.8c0.6,0,1,0.3,1.1,0.8l8.1,33.1
			c0.1,0.2,0.1,0.3,0.2,0.3c0.1,0,0.2-0.1,0.2-0.3l7.5-33c0.2-0.6,0.5-0.9,1.1-0.9h9.6c0.8,0,1.1,0.4,0.9,1.1l-13.3,55.1
			c-0.2,0.5-0.5,0.8-1.1,0.8h-9.7c-0.5,0-0.9-0.3-1.1-0.8l-8.3-35.2c-0.1-0.2-0.1-0.3-0.2-0.3c-0.1,0-0.2,0.1-0.2,0.3l-7.7,35.1
			c-0.1,0.6-0.5,0.9-1.1,0.9h-9C415,156.6,414.6,156.3,414.5,155.7z"/>
		<path class="st0" d="M523.6,99.9c0.2,0.2,0.3,0.4,0.3,0.7v8c0,0.3-0.1,0.5-0.3,0.7c-0.2,0.2-0.4,0.3-0.7,0.3h-14.6
			c-0.3,0-0.4,0.1-0.4,0.4v45.6c0,0.3-0.1,0.5-0.3,0.7c-0.2,0.2-0.4,0.3-0.7,0.3h-9.5c-0.3,0-0.5-0.1-0.7-0.3
			c-0.2-0.2-0.3-0.4-0.3-0.7v-45.6c0-0.3-0.1-0.4-0.4-0.4h-14.2c-0.3,0-0.5-0.1-0.7-0.3c-0.2-0.2-0.3-0.4-0.3-0.7v-8
			c0-0.3,0.1-0.5,0.3-0.7c0.2-0.2,0.4-0.3,0.7-0.3h41C523.2,99.6,523.4,99.7,523.6,99.9z"/>
		<path class="st0" d="M571.1,99.9c0.2-0.2,0.4-0.3,0.7-0.3h9.5c0.3,0,0.5,0.1,0.7,0.3c0.2,0.2,0.3,0.4,0.3,0.7v55
			c0,0.3-0.1,0.5-0.3,0.7c-0.2,0.2-0.4,0.3-0.7,0.3h-9.5c-0.3,0-0.5-0.1-0.7-0.3c-0.2-0.2-0.3-0.4-0.3-0.7v-22.5
			c0-0.3-0.1-0.4-0.4-0.4h-18c-0.3,0-0.4,0.1-0.4,0.4v22.5c0,0.3-0.1,0.5-0.3,0.7c-0.2,0.2-0.4,0.3-0.7,0.3h-9.5
			c-0.3,0-0.5-0.1-0.7-0.3c-0.2-0.2-0.3-0.4-0.3-0.7v-55c0-0.3,0.1-0.5,0.3-0.7c0.2-0.2,0.4-0.3,0.7-0.3h9.5c0.3,0,0.5,0.1,0.7,0.3
			c0.2,0.2,0.3,0.4,0.3,0.7v21.9c0,0.3,0.1,0.4,0.4,0.4h18c0.3,0,0.4-0.1,0.4-0.4v-21.9C570.8,100.3,570.9,100.1,571.1,99.9z"/>
	</g>
	<g>
		<path class="st0" d="M235.8,220.7c-2.2-0.9-3.9-2.3-5.1-4c-1.2-1.7-1.8-3.7-1.8-6v-1.4c0-0.2,0.1-0.4,0.2-0.5
			c0.1-0.1,0.3-0.2,0.5-0.2h5.1c0.2,0,0.4,0.1,0.5,0.2c0.1,0.1,0.2,0.3,0.2,0.5v1.1c0,1.7,0.8,3.2,2.3,4.4c1.6,1.2,3.7,1.7,6.4,1.7
			c2.3,0,4.1-0.5,5.2-1.5c1.2-1,1.8-2.3,1.8-3.8c0-1.1-0.3-2-1-2.7c-0.6-0.7-1.6-1.4-2.8-2c-1.2-0.6-3-1.4-5.4-2.3
			c-2.7-1-4.9-1.9-6.5-2.8c-1.7-0.9-3.1-2.1-4.2-3.6c-1.1-1.5-1.7-3.4-1.7-5.6c0-3.3,1.2-6,3.6-7.9c2.4-1.9,5.7-2.9,9.7-2.9
			c2.8,0,5.4,0.5,7.5,1.5c2.2,1,3.9,2.4,5.1,4.1c1.2,1.8,1.8,3.8,1.8,6.1v1c0,0.2-0.1,0.4-0.2,0.5c-0.1,0.1-0.3,0.2-0.5,0.2h-5.1
			c-0.2,0-0.4-0.1-0.5-0.2c-0.1-0.1-0.2-0.3-0.2-0.5v-0.6c0-1.8-0.7-3.3-2.2-4.5c-1.5-1.2-3.5-1.9-6.1-1.9c-2.1,0-3.7,0.4-4.9,1.3
			c-1.2,0.9-1.7,2.1-1.7,3.7c0,1.1,0.3,2.1,0.9,2.8c0.6,0.7,1.5,1.4,2.7,2c1.2,0.6,3.1,1.3,5.6,2.2c2.7,1,4.8,2,6.5,2.8
			c1.6,0.8,3,2,4.2,3.5c1.2,1.5,1.7,3.4,1.7,5.6c0,3.4-1.3,6.1-3.8,8.1c-2.5,2-6,3-10.3,3C240.5,222.1,238,221.6,235.8,220.7z"/>
		<path class="st0" d="M294.7,182c0.1,0.1,0.2,0.3,0.2,0.5v4.4c0,0.2-0.1,0.4-0.2,0.5c-0.1,0.1-0.3,0.2-0.5,0.2h-10.5
			c-0.2,0-0.3,0.1-0.3,0.3V221c0,0.2-0.1,0.4-0.2,0.5c-0.1,0.1-0.3,0.2-0.5,0.2h-5.2c-0.2,0-0.4-0.1-0.5-0.2
			c-0.1-0.1-0.2-0.3-0.2-0.5v-33.1c0-0.2-0.1-0.3-0.3-0.3h-10.1c-0.2,0-0.4-0.1-0.5-0.2c-0.1-0.1-0.2-0.3-0.2-0.5v-4.4
			c0-0.2,0.1-0.4,0.2-0.5c0.1-0.1,0.3-0.2,0.5-0.2h27.7C294.4,181.8,294.5,181.9,294.7,182z"/>
		<path class="st0" d="M327,221.1l-7.5-16.4c-0.1-0.2-0.2-0.2-0.3-0.2h-6.8c-0.2,0-0.3,0.1-0.3,0.3V221c0,0.2-0.1,0.4-0.2,0.5
			c-0.1,0.1-0.3,0.2-0.5,0.2h-5.2c-0.2,0-0.4-0.1-0.5-0.2c-0.1-0.1-0.2-0.3-0.2-0.5v-38.5c0-0.2,0.1-0.4,0.2-0.5
			c0.1-0.1,0.3-0.2,0.5-0.2h15.7c2.3,0,4.4,0.5,6.2,1.5c1.8,1,3.2,2.3,4.2,4.1c1,1.8,1.5,3.8,1.5,6.1c0,2.6-0.7,4.9-2,6.7
			c-1.3,1.8-3.2,3.1-5.6,3.8c-0.1,0-0.1,0-0.2,0.1c0,0.1,0,0.2,0,0.2l8,16.6c0.1,0.2,0.1,0.3,0.1,0.3c0,0.3-0.2,0.5-0.6,0.5h-5.5
			C327.4,221.7,327.1,221.5,327,221.1z M312,187.8v11.3c0,0.2,0.1,0.3,0.3,0.3h8.5c1.8,0,3.3-0.5,4.4-1.6s1.7-2.5,1.7-4.3
			c0-1.8-0.6-3.2-1.7-4.3c-1.1-1.1-2.6-1.7-4.4-1.7h-8.5C312.1,187.5,312,187.6,312,187.8z"/>
		<path class="st0" d="M370,221.1l-1.9-6.1c-0.1-0.2-0.2-0.2-0.3-0.2h-15c-0.1,0-0.2,0.1-0.3,0.2l-1.9,6.1c-0.1,0.4-0.4,0.6-0.7,0.6
			h-5.7c-0.2,0-0.4-0.1-0.5-0.2c-0.1-0.1-0.1-0.3-0.1-0.6l12.4-38.5c0.1-0.4,0.4-0.6,0.7-0.6h7.1c0.4,0,0.6,0.2,0.7,0.6l12.4,38.5
			c0,0.1,0.1,0.2,0.1,0.3c0,0.3-0.2,0.5-0.6,0.5h-5.7C370.4,221.7,370.2,221.5,370,221.1z M354.6,209.6h11.6c0.2,0,0.3-0.1,0.2-0.3
			l-5.9-19.1c0-0.2-0.1-0.2-0.2-0.2c-0.1,0-0.1,0.1-0.2,0.2l-5.8,19.1C354.3,209.5,354.4,209.6,354.6,209.6z"/>
		<path class="st0" d="M409.7,182c0.1,0.1,0.2,0.3,0.2,0.5v4.4c0,0.2-0.1,0.4-0.2,0.5c-0.1,0.1-0.3,0.2-0.5,0.2h-10.5
			c-0.2,0-0.3,0.1-0.3,0.3V221c0,0.2-0.1,0.4-0.2,0.5c-0.1,0.1-0.3,0.2-0.5,0.2h-5.2c-0.2,0-0.4-0.1-0.5-0.2
			c-0.1-0.1-0.2-0.3-0.2-0.5v-33.1c0-0.2-0.1-0.3-0.3-0.3h-10.1c-0.2,0-0.4-0.1-0.5-0.2c-0.1-0.1-0.2-0.3-0.2-0.5v-4.4
			c0-0.2,0.1-0.4,0.2-0.5c0.1-0.1,0.3-0.2,0.5-0.2h27.7C409.4,181.8,409.5,181.9,409.7,182z"/>
		<path class="st0" d="M447.2,187.3c-0.1,0.1-0.3,0.2-0.5,0.2h-19.4c-0.2,0-0.3,0.1-0.3,0.3v10.7c0,0.2,0.1,0.3,0.3,0.3h13
			c0.2,0,0.4,0.1,0.5,0.2s0.2,0.3,0.2,0.5v4.3c0,0.2-0.1,0.4-0.2,0.5s-0.3,0.2-0.5,0.2h-13c-0.2,0-0.3,0.1-0.3,0.3v11
			c0,0.2,0.1,0.3,0.3,0.3h19.4c0.2,0,0.4,0.1,0.5,0.2c0.1,0.1,0.2,0.3,0.2,0.5v4.3c0,0.2-0.1,0.4-0.2,0.5c-0.1,0.1-0.3,0.2-0.5,0.2
			h-25.6c-0.2,0-0.4-0.1-0.5-0.2c-0.1-0.1-0.2-0.3-0.2-0.5v-38.5c0-0.2,0.1-0.4,0.2-0.5c0.1-0.1,0.3-0.2,0.5-0.2h25.6
			c0.2,0,0.4,0.1,0.5,0.2s0.2,0.3,0.2,0.5v4.3C447.4,187,447.3,187.1,447.2,187.3z"/>
		<path class="st0" d="M464.4,220.4c-2.2-1.1-3.8-2.7-5-4.8c-1.2-2-1.8-4.4-1.8-7.1v-13.8c0-2.7,0.6-5.1,1.8-7.1
			c1.2-2,2.8-3.6,5-4.7c2.2-1.1,4.7-1.7,7.5-1.7c2.8,0,5.3,0.6,7.4,1.7c2.1,1.1,3.8,2.6,5,4.5c1.2,1.9,1.8,4,1.8,6.4v0.5
			c0,0.2-0.1,0.4-0.2,0.5c-0.1,0.1-0.3,0.2-0.5,0.2h-5.2c-0.2,0-0.4-0.1-0.5-0.2c-0.1-0.1-0.2-0.3-0.2-0.5v-0.3
			c0-2.1-0.7-3.7-2.1-5.1c-1.4-1.3-3.2-2-5.6-2c-2.3,0-4.2,0.7-5.6,2.1c-1.4,1.4-2.1,3.2-2.1,5.5v14.2c0,2.3,0.7,4.1,2.2,5.5
			c1.5,1.4,3.4,2.1,5.8,2.1c2.3,0,4.1-0.6,5.4-1.8c1.3-1.2,2-2.8,2-4.9v-3.5c0-0.2-0.1-0.3-0.3-0.3h-7c-0.2,0-0.4-0.1-0.5-0.2
			c-0.1-0.1-0.2-0.3-0.2-0.5V201c0-0.2,0.1-0.4,0.2-0.5c0.1-0.1,0.3-0.2,0.5-0.2h13.2c0.2,0,0.4,0.1,0.5,0.2s0.2,0.3,0.2,0.5v7.3
			c0,4.4-1.3,7.8-3.8,10.2c-2.6,2.4-6,3.6-10.3,3.6C469,222.1,466.5,221.5,464.4,220.4z"/>
		<path class="st0" d="M498.1,221.5c-0.1-0.1-0.2-0.3-0.2-0.5v-38.5c0-0.2,0.1-0.4,0.2-0.5c0.1-0.1,0.3-0.2,0.5-0.2h5.2
			c0.2,0,0.4,0.1,0.5,0.2c0.1,0.1,0.2,0.3,0.2,0.5V221c0,0.2-0.1,0.4-0.2,0.5c-0.1,0.1-0.3,0.2-0.5,0.2h-5.2
			C498.4,221.7,498.2,221.6,498.1,221.5z"/>
		<path class="st0" d="M544.1,187.3c-0.1,0.1-0.3,0.2-0.5,0.2h-19.4c-0.2,0-0.3,0.1-0.3,0.3v10.7c0,0.2,0.1,0.3,0.3,0.3h13
			c0.2,0,0.4,0.1,0.5,0.2s0.2,0.3,0.2,0.5v4.3c0,0.2-0.1,0.4-0.2,0.5s-0.3,0.2-0.5,0.2h-13c-0.2,0-0.3,0.1-0.3,0.3v11
			c0,0.2,0.1,0.3,0.3,0.3h19.4c0.2,0,0.4,0.1,0.5,0.2c0.1,0.1,0.2,0.3,0.2,0.5v4.3c0,0.2-0.1,0.4-0.2,0.5c-0.1,0.1-0.3,0.2-0.5,0.2
			H518c-0.2,0-0.4-0.1-0.5-0.2c-0.1-0.1-0.2-0.3-0.2-0.5v-38.5c0-0.2,0.1-0.4,0.2-0.5c0.1-0.1,0.3-0.2,0.5-0.2h25.6
			c0.2,0,0.4,0.1,0.5,0.2s0.2,0.3,0.2,0.5v4.3C544.3,187,544.2,187.1,544.1,187.3z"/>
		<path class="st0" d="M560.6,220.7c-2.2-0.9-3.9-2.3-5.1-4c-1.2-1.7-1.8-3.7-1.8-6v-1.4c0-0.2,0.1-0.4,0.2-0.5
			c0.1-0.1,0.3-0.2,0.5-0.2h5.1c0.2,0,0.4,0.1,0.5,0.2c0.1,0.1,0.2,0.3,0.2,0.5v1.1c0,1.7,0.8,3.2,2.3,4.4c1.6,1.2,3.7,1.7,6.4,1.7
			c2.3,0,4.1-0.5,5.2-1.5c1.2-1,1.8-2.3,1.8-3.8c0-1.1-0.3-2-1-2.7c-0.6-0.7-1.6-1.4-2.8-2c-1.2-0.6-3-1.4-5.4-2.3
			c-2.7-1-4.9-1.9-6.5-2.8c-1.7-0.9-3.1-2.1-4.2-3.6c-1.1-1.5-1.7-3.4-1.7-5.6c0-3.3,1.2-6,3.6-7.9c2.4-1.9,5.7-2.9,9.7-2.9
			c2.8,0,5.4,0.5,7.5,1.5c2.2,1,3.9,2.4,5.1,4.1c1.2,1.8,1.8,3.8,1.8,6.1v1c0,0.2-0.1,0.4-0.2,0.5c-0.1,0.1-0.3,0.2-0.5,0.2h-5.1
			c-0.2,0-0.4-0.1-0.5-0.2c-0.1-0.1-0.2-0.3-0.2-0.5v-0.6c0-1.8-0.7-3.3-2.2-4.5c-1.5-1.2-3.5-1.9-6.1-1.9c-2.1,0-3.7,0.4-4.9,1.3
			c-1.2,0.9-1.7,2.1-1.7,3.7c0,1.1,0.3,2.1,0.9,2.8c0.6,0.7,1.5,1.4,2.7,2c1.2,0.6,3.1,1.3,5.6,2.2c2.7,1,4.8,2,6.5,2.8
			c1.6,0.8,3,2,4.2,3.5c1.2,1.5,1.7,3.4,1.7,5.6c0,3.4-1.3,6.1-3.8,8.1c-2.5,2-6,3-10.3,3C565.3,222.1,562.8,221.6,560.6,220.7z"/>
	</g>
</g>
<g>
	<path class="st0" d="M774.7,71.3l-2.1-7c0-0.1-0.1-0.2-0.2-0.2h-16.7c-0.1,0-0.2,0.1-0.2,0.2l-2.1,7c-0.1,0.3-0.4,0.5-0.7,0.5h-4.8
		c-0.4,0-0.6-0.2-0.5-0.7l13-40.5c0.1-0.3,0.4-0.5,0.7-0.5h5.9c0.4,0,0.6,0.2,0.7,0.5l13.1,40.5l0.1,0.2c0,0.3-0.2,0.4-0.5,0.4h-4.9
		C775.1,71.8,774.9,71.7,774.7,71.3z M757,59.6c0.1,0.1,0.1,0.1,0.2,0.1h13.7c0.1,0,0.1,0,0.2-0.1c0.1-0.1,0.1-0.1,0-0.2l-6.9-22
		c0-0.1-0.1-0.1-0.2-0.1c-0.1,0-0.1,0-0.2,0.1l-6.9,22C756.9,59.5,756.9,59.5,757,59.6z"/>
	<path class="st0" d="M791.1,70c-2.1-1.5-3.6-3.6-4.4-6.2c-0.6-1.8-0.9-4.2-0.9-7.2c0-2.7,0.3-5.1,0.9-7.2c0.8-2.5,2.3-4.6,4.4-6.1
		c2.2-1.5,4.7-2.3,7.7-2.3c3,0,5.6,0.8,7.8,2.3c2.2,1.5,3.7,3.4,4.3,5.7c0.2,0.6,0.4,1.3,0.5,2c0,0.3-0.2,0.5-0.5,0.6l-4.5,0.7h-0.1
		c-0.3,0-0.5-0.2-0.6-0.5l-0.2-1c-0.3-1.3-1.1-2.5-2.3-3.4s-2.7-1.4-4.5-1.4c-1.7,0-3.1,0.5-4.3,1.4s-2,2.1-2.3,3.6
		c-0.4,1.4-0.5,3.3-0.5,5.6c0,2.3,0.2,4.2,0.5,5.6c0.4,1.6,1.2,2.8,2.3,3.7s2.6,1.4,4.3,1.4c1.7,0,3.2-0.5,4.5-1.4
		c1.2-0.9,2-2.1,2.3-3.6c0,0,0-0.1,0-0.1c0-0.1,0-0.1,0-0.1v-0.2c0.1-0.3,0.3-0.4,0.7-0.4l4.5,0.7c0.3,0.1,0.5,0.2,0.5,0.5V63
		c0,0.4-0.1,0.8-0.3,1.3c-0.7,2.4-2.1,4.4-4.3,5.8c-2.2,1.5-4.8,2.2-7.8,2.2C795.8,72.3,793.2,71.5,791.1,70z"/>
	<path class="st0" d="M822.7,70c-2.1-1.5-3.6-3.6-4.4-6.2c-0.6-1.8-0.9-4.2-0.9-7.2c0-2.7,0.3-5.1,0.9-7.2c0.8-2.5,2.3-4.6,4.4-6.1
		c2.2-1.5,4.7-2.3,7.7-2.3c3,0,5.6,0.8,7.8,2.3c2.2,1.5,3.7,3.4,4.3,5.7c0.2,0.6,0.4,1.3,0.5,2c0,0.3-0.2,0.5-0.5,0.6l-4.5,0.7h-0.1
		c-0.3,0-0.5-0.2-0.6-0.5l-0.2-1c-0.3-1.3-1.1-2.5-2.3-3.4s-2.7-1.4-4.5-1.4c-1.7,0-3.1,0.5-4.3,1.4s-2,2.1-2.3,3.6
		c-0.4,1.4-0.5,3.3-0.5,5.6c0,2.3,0.2,4.2,0.5,5.6c0.4,1.6,1.2,2.8,2.3,3.7s2.6,1.4,4.3,1.4c1.7,0,3.2-0.5,4.5-1.4
		c1.2-0.9,2-2.1,2.3-3.6c0,0,0-0.1,0-0.1c0-0.1,0-0.1,0-0.1v-0.2c0.1-0.3,0.3-0.4,0.7-0.4l4.5,0.7c0.3,0.1,0.5,0.2,0.5,0.5V63
		c0,0.4-0.1,0.8-0.3,1.3c-0.7,2.4-2.1,4.4-4.3,5.8c-2.2,1.5-4.8,2.2-7.8,2.2C827.4,72.3,824.8,71.5,822.7,70z"/>
	<path class="st0" d="M874.5,58.4c0,0.4-0.2,0.6-0.6,0.6H855c-0.2,0-0.2,0.1-0.2,0.2c0,1.3,0.1,2.4,0.4,3.1c0.4,1.6,1.3,2.8,2.6,3.7
		c1.3,0.9,3,1.3,5,1.3c2.9,0,5.2-1.2,6.8-3.6c0.2-0.4,0.5-0.5,0.8-0.2l3.4,2.3c0.3,0.2,0.3,0.5,0.2,0.8c-1.1,1.8-2.7,3.2-4.7,4.2
		c-2,1-4.3,1.5-6.9,1.5c-2.9,0-5.3-0.6-7.3-1.9c-2-1.3-3.5-3.1-4.5-5.4c-1-2.3-1.4-5.2-1.4-8.5c0-2.9,0.2-5.1,0.7-6.6
		c0.7-2.7,2.1-4.9,4.3-6.5c2.1-1.6,4.7-2.4,7.8-2.4c4,0,7,1,9,3c2,2,3.2,4.9,3.6,8.8C874.5,54.5,874.6,56.4,874.5,58.4z M857.6,47.3
		c-1.1,0.9-1.9,2-2.3,3.4c-0.3,0.9-0.5,2-0.5,3.3c0,0.2,0.1,0.2,0.2,0.2h13.6c0.2,0,0.2-0.1,0.2-0.2c-0.1-1.3-0.2-2.3-0.4-2.9
		c-0.4-1.5-1.2-2.8-2.3-3.7c-1.2-0.9-2.6-1.4-4.4-1.4C860.1,46,858.7,46.5,857.6,47.3z"/>
	<path class="st0" d="M882.3,71.2V30.8c0-0.4,0.2-0.6,0.6-0.6h4.5c0.4,0,0.6,0.2,0.6,0.6v40.4c0,0.4-0.2,0.6-0.6,0.6h-4.5
		C882.5,71.8,882.3,71.6,882.3,71.2z"/>
	<path class="st0" d="M921.5,58.4c0,0.4-0.2,0.6-0.6,0.6H902c-0.2,0-0.2,0.1-0.2,0.2c0,1.3,0.1,2.4,0.4,3.1c0.4,1.6,1.3,2.8,2.6,3.7
		c1.3,0.9,3,1.3,5,1.3c2.9,0,5.2-1.2,6.8-3.6c0.2-0.4,0.5-0.5,0.8-0.2l3.4,2.3c0.3,0.2,0.3,0.5,0.2,0.8c-1.1,1.8-2.7,3.2-4.7,4.2
		c-2,1-4.3,1.5-6.9,1.5c-2.9,0-5.3-0.6-7.3-1.9c-2-1.3-3.5-3.1-4.5-5.4c-1-2.3-1.4-5.2-1.4-8.5c0-2.9,0.2-5.1,0.7-6.6
		c0.7-2.7,2.1-4.9,4.3-6.5c2.1-1.6,4.7-2.4,7.8-2.4c4,0,7,1,9,3c2,2,3.2,4.9,3.6,8.8C921.5,54.5,921.6,56.4,921.5,58.4z M904.5,47.3
		c-1.1,0.9-1.9,2-2.3,3.4c-0.3,0.9-0.5,2-0.5,3.3c0,0.2,0.1,0.2,0.2,0.2h13.6c0.2,0,0.2-0.1,0.2-0.2c-0.1-1.3-0.2-2.3-0.4-2.9
		c-0.4-1.5-1.2-2.8-2.3-3.7c-1.2-0.9-2.6-1.4-4.4-1.4C907.1,46,905.6,46.5,904.5,47.3z"/>
	<path class="st0" d="M946,42.1c0.3,0.1,0.4,0.4,0.3,0.7l-1,4.5c0,0.4-0.3,0.5-0.7,0.4c-0.7-0.3-1.5-0.4-2.4-0.4l-0.8,0.1
		c-1.9,0.1-3.4,0.7-4.6,1.9c-1.2,1.2-1.8,2.8-1.8,4.7v17.3c0,0.4-0.2,0.6-0.6,0.6h-4.5c-0.4,0-0.6-0.2-0.6-0.6v-29
		c0-0.4,0.2-0.6,0.6-0.6h4.5c0.4,0,0.6,0.2,0.6,0.6v3.1c0,0.1,0,0.2,0.1,0.2s0.1,0,0.1-0.1c1.8-2.8,4.2-4.2,7.3-4.2
		C943.8,41.3,945,41.5,946,42.1z"/>
	<path class="st0" d="M969.1,42.4c1.8,0.9,3.2,2,4.2,3.6c1,1.5,1.5,3.3,1.5,5.2v20.1c0,0.4-0.2,0.6-0.6,0.6h-4.5
		c-0.4,0-0.6-0.2-0.6-0.6v-2.1c0-0.2-0.1-0.2-0.3-0.1c-1,1.1-2.3,1.9-3.8,2.5c-1.5,0.6-3.1,0.9-5,0.9c-2.9,0-5.4-0.7-7.3-2.2
		c-1.9-1.5-2.9-3.7-2.9-6.7c0-3.1,1.1-5.5,3.2-7.3c2.2-1.8,5.2-2.6,9.1-2.6h6.7c0.2,0,0.2-0.1,0.2-0.2v-1.6c0-1.7-0.5-3.1-1.5-4.1
		c-1-1-2.5-1.5-4.6-1.5c-1.7,0-3,0.3-4.1,1c-1,0.7-1.7,1.5-1.9,2.6c-0.1,0.4-0.4,0.6-0.7,0.5l-4.8-0.7c-0.4-0.1-0.6-0.2-0.5-0.5
		c0.3-2.3,1.6-4.2,3.7-5.7c2.2-1.5,4.9-2.2,8.2-2.2C965.2,41.1,967.3,41.5,969.1,42.4z M966.7,65.8c1.5-1.1,2.3-2.5,2.3-4.2v-3.5
		c0-0.2-0.1-0.2-0.2-0.2h-5.6c-2.3,0-4.2,0.5-5.6,1.4c-1.4,0.9-2.1,2.2-2.1,3.8c0,1.5,0.5,2.6,1.6,3.3c1,0.8,2.4,1.1,4.1,1.1
		C963.3,67.5,965.1,66.9,966.7,65.8z"/>
	<path class="st0" d="M996.9,46.3h-6.4c-0.2,0-0.2,0.1-0.2,0.2v15.7c0,1.7,0.4,2.9,1.1,3.6c0.8,0.7,1.9,1.1,3.5,1.1h1.7
		c0.4,0,0.6,0.2,0.6,0.6v3.7c0,0.4-0.2,0.6-0.6,0.6c-1.3,0.1-2.2,0.1-2.7,0.1c-3,0-5.3-0.5-6.8-1.6c-1.5-1.1-2.3-3.1-2.3-6V46.5
		c0-0.2-0.1-0.2-0.2-0.2h-3.6c-0.4,0-0.6-0.2-0.6-0.6v-3.5c0-0.4,0.2-0.6,0.6-0.6h3.6c0.2,0,0.2-0.1,0.2-0.2v-7
		c0-0.4,0.2-0.6,0.6-0.6h4.3c0.4,0,0.6,0.2,0.6,0.6v7c0,0.2,0.1,0.2,0.2,0.2h6.4c0.4,0,0.6,0.2,0.6,0.6v3.5
		C997.5,46.1,997.3,46.3,996.9,46.3z"/>
	<path class="st0" d="M1005.8,35.8c-0.7-0.7-1.1-1.6-1.1-2.7c0-1.1,0.4-2,1.1-2.7c0.7-0.7,1.6-1.1,2.7-1.1c1.1,0,2,0.4,2.7,1.1
		c0.7,0.7,1.1,1.6,1.1,2.7c0,1.1-0.4,2-1.1,2.7c-0.7,0.7-1.6,1.1-2.7,1.1C1007.4,36.8,1006.5,36.5,1005.8,35.8z M1005.6,71.2v-29
		c0-0.4,0.2-0.6,0.6-0.6h4.5c0.4,0,0.6,0.2,0.6,0.6v29c0,0.4-0.2,0.6-0.6,0.6h-4.5C1005.8,71.8,1005.6,71.6,1005.6,71.2z"/>
	<path class="st0" d="M1042.1,44c1.9,1.9,2.9,4.4,2.9,7.6v19.6c0,0.4-0.2,0.6-0.6,0.6h-4.5c-0.4,0-0.6-0.2-0.6-0.6V52.7
		c0-2-0.6-3.6-1.7-4.8c-1.1-1.2-2.7-1.8-4.6-1.8c-1.9,0-3.4,0.6-4.6,1.8c-1.2,1.2-1.8,2.8-1.8,4.8v18.5c0,0.4-0.2,0.6-0.6,0.6h-4.5
		c-0.4,0-0.6-0.2-0.6-0.6v-29c0-0.4,0.2-0.6,0.6-0.6h4.5c0.4,0,0.6,0.2,0.6,0.6v2.1c0,0.1,0,0.1,0.1,0.2c0.1,0,0.1,0,0.1-0.1
		c1.7-2.2,4.2-3.3,7.5-3.3C1037.6,41.2,1040.2,42.1,1042.1,44z"/>
	<path class="st0" d="M1072.8,41.6h4.5c0.4,0,0.6,0.2,0.6,0.6v28.1c0,4.8-1.4,8.2-4.1,10.3c-2.7,2.1-6.3,3.1-10.9,3.1
		c-0.6,0-1.6,0-3-0.1c-0.4,0-0.6-0.3-0.6-0.7l0.2-4.1c0-0.2,0.1-0.3,0.2-0.4c0.1-0.1,0.3-0.2,0.5-0.1c0.6,0,1.4,0.1,2.4,0.1
		c3.4,0,5.8-0.6,7.3-1.9c1.5-1.2,2.3-3.4,2.3-6.3V69c0-0.1,0-0.1-0.1-0.2c-0.1,0-0.1,0-0.2,0.1c-1.7,1.9-4.1,2.9-7.3,2.9
		c-2.6,0-4.9-0.7-7-2c-2.1-1.3-3.5-3.3-4.3-5.9c-0.5-1.7-0.8-4.2-0.8-7.2c0-3.3,0.3-5.8,0.9-7.6c0.8-2.4,2.1-4.3,4-5.7
		c1.9-1.4,4.2-2.2,6.8-2.2c3.2,0,5.8,1,7.7,3c0.1,0.1,0.1,0.1,0.2,0.1c0.1,0,0.1-0.1,0.1-0.1v-1.8
		C1072.2,41.8,1072.4,41.6,1072.8,41.6z M1072.2,60.1c0.1-0.7,0.1-1.9,0.1-3.6c0-1.7,0-2.8-0.1-3.5c-0.1-0.7-0.2-1.4-0.3-2
		c-0.3-1.5-1-2.7-2.1-3.6c-1.1-0.9-2.5-1.4-4.2-1.4s-3,0.5-4.2,1.4c-1.1,0.9-1.9,2.1-2.4,3.6c-0.4,1.2-0.7,3-0.7,5.5
		c0,2.7,0.2,4.6,0.6,5.6c0.4,1.5,1.2,2.7,2.3,3.6c1.2,0.9,2.6,1.4,4.2,1.4c1.7,0,3.2-0.5,4.2-1.4c1.1-0.9,1.8-2.1,2.1-3.6
		C1072,61.5,1072.1,60.8,1072.2,60.1z"/>
	<path class="st0" d="M772.4,119c4.2,1.8,6.3,5.1,6.3,9.9c0,3.6-1.2,6.5-3.6,8.4c-2.4,2-5.6,3-9.4,3h-14.8c-0.4,0-0.6-0.2-0.6-0.6
		V99.4c0-0.4,0.2-0.6,0.6-0.6h14.3c4.1,0,7.3,0.9,9.6,2.8c2.3,1.9,3.4,4.6,3.4,8.2c0,4.3-1.9,7.2-5.8,8.9
		C772.2,118.8,772.2,118.9,772.4,119z M755.9,103.9v12.5c0,0.2,0.1,0.2,0.2,0.2h9c2.3,0,4.1-0.6,5.4-1.7c1.3-1.1,2-2.7,2-4.7
		c0-2-0.7-3.6-2-4.8c-1.3-1.2-3.1-1.8-5.4-1.8h-9C756,103.7,755.9,103.8,755.9,103.9z M771,133.5c1.3-1.2,2-2.9,2-5.1
		c0-2.1-0.7-3.8-2-5.1c-1.3-1.2-3.2-1.9-5.5-1.9h-9.3c-0.2,0-0.2,0.1-0.2,0.2v13.4c0,0.2,0.1,0.2,0.2,0.2h9.4
		C767.9,135.4,769.6,134.7,771,133.5z"/>
	<path class="st0" d="M805.1,110.1h4.5c0.4,0,0.6,0.2,0.6,0.6v29c0,0.4-0.2,0.6-0.6,0.6h-4.5c-0.4,0-0.6-0.2-0.6-0.6v-2.2
		c0-0.1,0-0.1-0.1-0.1c-0.1,0-0.1,0-0.2,0.1c-1.6,2.2-4,3.3-7.3,3.3c-1.9,0-3.7-0.4-5.4-1.1s-3-1.9-4-3.3c-1-1.5-1.5-3.2-1.5-5.3
		v-20.3c0-0.4,0.2-0.6,0.6-0.6h4.5c0.4,0,0.6,0.2,0.6,0.6v18.5c0,2.1,0.5,3.7,1.6,4.9c1.1,1.2,2.6,1.8,4.6,1.8s3.6-0.6,4.8-1.8
		c1.2-1.2,1.8-2.8,1.8-4.8v-18.5C804.5,110.3,804.7,110.1,805.1,110.1z"/>
	<path class="st0" d="M823.4,139.6c-1.8-0.7-3.2-1.7-4.2-2.9c-1-1.2-1.5-2.6-1.5-4.1v-0.7c0-0.4,0.2-0.6,0.6-0.6h4.3
		c0.4,0,0.6,0.2,0.6,0.6v0.3c0,1.1,0.6,2.1,1.8,2.9c1.2,0.8,2.7,1.2,4.6,1.2c1.8,0,3.2-0.4,4.3-1.2c1.1-0.8,1.7-1.8,1.7-2.9
		c0-1.1-0.5-2-1.5-2.6c-1-0.6-2.7-1.2-5-1.8c-2.3-0.6-4.1-1.3-5.7-1.9c-1.5-0.7-2.8-1.6-3.9-2.8c-1-1.2-1.6-2.8-1.6-4.7
		c0-2.7,1-4.8,3.1-6.3s4.8-2.3,8.3-2.3c2.3,0,4.3,0.4,6.1,1.1c1.8,0.7,3.1,1.8,4.1,3.1c1,1.3,1.4,2.8,1.4,4.4v0.2
		c0,0.4-0.2,0.6-0.6,0.6h-4.2c-0.4,0-0.6-0.2-0.6-0.6v-0.2c0-1.1-0.6-2.1-1.7-2.9c-1.1-0.8-2.7-1.2-4.6-1.2c-1.7,0-3.2,0.3-4.2,1
		c-1.1,0.7-1.6,1.6-1.6,2.7s0.5,2,1.6,2.6c1,0.6,2.7,1.2,5.1,1.9c2.3,0.6,4.2,1.3,5.7,1.9c1.5,0.6,2.8,1.5,3.9,2.7
		c1.1,1.2,1.6,2.8,1.6,4.7c0,2.7-1.1,4.8-3.2,6.4c-2.1,1.6-4.9,2.4-8.5,2.4C827.3,140.7,825.2,140.4,823.4,139.6z"/>
	<path class="st0" d="M849.3,104.3c-0.7-0.7-1.1-1.6-1.1-2.7c0-1.1,0.4-2,1.1-2.7s1.6-1.1,2.7-1.1c1.1,0,2,0.4,2.7,1.1
		c0.7,0.7,1.1,1.6,1.1,2.7c0,1.1-0.4,2-1.1,2.7c-0.7,0.7-1.6,1.1-2.7,1.1C850.9,105.4,850,105,849.3,104.3z M849.1,139.7v-29
		c0-0.4,0.2-0.6,0.6-0.6h4.5c0.4,0,0.6,0.2,0.6,0.6v29c0,0.4-0.2,0.6-0.6,0.6h-4.5C849.3,140.3,849.1,140.1,849.1,139.7z"/>
	<path class="st0" d="M885.5,112.5c1.9,1.9,2.9,4.4,2.9,7.6v19.6c0,0.4-0.2,0.6-0.6,0.6h-4.5c-0.4,0-0.6-0.2-0.6-0.6v-18.5
		c0-2-0.6-3.6-1.7-4.8c-1.1-1.2-2.7-1.8-4.6-1.8c-1.9,0-3.4,0.6-4.6,1.8c-1.2,1.2-1.8,2.8-1.8,4.8v18.5c0,0.4-0.2,0.6-0.6,0.6h-4.5
		c-0.4,0-0.6-0.2-0.6-0.6v-29c0-0.4,0.2-0.6,0.6-0.6h4.5c0.4,0,0.6,0.2,0.6,0.6v2.1c0,0.1,0,0.1,0.1,0.2c0.1,0,0.1,0,0.1-0.1
		c1.7-2.2,4.2-3.3,7.5-3.3C881.1,109.7,883.6,110.6,885.5,112.5z"/>
	<path class="st0" d="M921.4,126.9c0,0.4-0.2,0.6-0.6,0.6h-18.9c-0.2,0-0.2,0.1-0.2,0.2c0,1.3,0.1,2.4,0.4,3.1
		c0.4,1.6,1.3,2.8,2.6,3.7c1.3,0.9,3,1.3,5,1.3c2.9,0,5.2-1.2,6.8-3.6c0.2-0.4,0.5-0.5,0.8-0.2l3.4,2.3c0.3,0.2,0.3,0.5,0.2,0.8
		c-1.1,1.8-2.7,3.2-4.7,4.2c-2,1-4.3,1.5-6.9,1.5c-2.9,0-5.3-0.6-7.3-1.9c-2-1.3-3.5-3.1-4.5-5.4c-1-2.3-1.4-5.2-1.4-8.5
		c0-2.9,0.2-5.1,0.7-6.6c0.7-2.7,2.1-4.9,4.3-6.5c2.1-1.6,4.7-2.4,7.8-2.4c4,0,7,1,9,3c2,2,3.2,4.9,3.6,8.8
		C921.4,123.1,921.5,124.9,921.4,126.9z M904.4,115.9c-1.1,0.9-1.9,2-2.3,3.4c-0.3,0.9-0.5,2-0.5,3.3c0,0.2,0.1,0.2,0.2,0.2h13.6
		c0.2,0,0.2-0.1,0.2-0.2c-0.1-1.3-0.2-2.3-0.4-2.9c-0.4-1.5-1.2-2.8-2.3-3.7c-1.2-0.9-2.6-1.4-4.4-1.4
		C906.9,114.6,905.5,115,904.4,115.9z"/>
	<path class="st0" d="M933.1,139.6c-1.8-0.7-3.2-1.7-4.2-2.9c-1-1.2-1.5-2.6-1.5-4.1v-0.7c0-0.4,0.2-0.6,0.6-0.6h4.3
		c0.4,0,0.6,0.2,0.6,0.6v0.3c0,1.1,0.6,2.1,1.8,2.9c1.2,0.8,2.7,1.2,4.6,1.2c1.8,0,3.2-0.4,4.3-1.2c1.1-0.8,1.7-1.8,1.7-2.9
		c0-1.1-0.5-2-1.5-2.6c-1-0.6-2.7-1.2-5-1.8c-2.3-0.6-4.1-1.3-5.7-1.9c-1.5-0.7-2.8-1.6-3.9-2.8c-1-1.2-1.6-2.8-1.6-4.7
		c0-2.7,1-4.8,3.1-6.3s4.8-2.3,8.3-2.3c2.3,0,4.3,0.4,6.1,1.1c1.8,0.7,3.1,1.8,4.1,3.1c1,1.3,1.4,2.8,1.4,4.4v0.2
		c0,0.4-0.2,0.6-0.6,0.6h-4.2c-0.4,0-0.6-0.2-0.6-0.6v-0.2c0-1.1-0.6-2.1-1.7-2.9c-1.1-0.8-2.7-1.2-4.6-1.2c-1.7,0-3.2,0.3-4.2,1
		c-1.1,0.7-1.6,1.6-1.6,2.7s0.5,2,1.6,2.6c1,0.6,2.7,1.2,5.1,1.9c2.3,0.6,4.2,1.3,5.7,1.9c1.5,0.6,2.8,1.5,3.9,2.7
		c1.1,1.2,1.6,2.8,1.6,4.7c0,2.7-1.1,4.8-3.2,6.4c-2.1,1.6-4.9,2.4-8.5,2.4C937,140.7,934.9,140.4,933.1,139.6z"/>
	<path class="st0" d="M961.9,139.6c-1.8-0.7-3.2-1.7-4.2-2.9c-1-1.2-1.5-2.6-1.5-4.1v-0.7c0-0.4,0.2-0.6,0.6-0.6h4.3
		c0.4,0,0.6,0.2,0.6,0.6v0.3c0,1.1,0.6,2.1,1.8,2.9c1.2,0.8,2.7,1.2,4.6,1.2c1.8,0,3.2-0.4,4.3-1.2c1.1-0.8,1.7-1.8,1.7-2.9
		c0-1.1-0.5-2-1.5-2.6c-1-0.6-2.7-1.2-5-1.8c-2.3-0.6-4.1-1.3-5.7-1.9c-1.5-0.7-2.8-1.6-3.9-2.8c-1-1.2-1.6-2.8-1.6-4.7
		c0-2.7,1-4.8,3.1-6.3s4.8-2.3,8.3-2.3c2.3,0,4.3,0.4,6.1,1.1c1.8,0.7,3.1,1.8,4.1,3.1c1,1.3,1.4,2.8,1.4,4.4v0.2
		c0,0.4-0.2,0.6-0.6,0.6h-4.2c-0.4,0-0.6-0.2-0.6-0.6v-0.2c0-1.1-0.6-2.1-1.7-2.9c-1.1-0.8-2.7-1.2-4.6-1.2c-1.7,0-3.2,0.3-4.2,1
		c-1.1,0.7-1.6,1.6-1.6,2.7s0.5,2,1.6,2.6c1,0.6,2.7,1.2,5.1,1.9c2.3,0.6,4.2,1.3,5.7,1.9c1.5,0.6,2.8,1.5,3.9,2.7
		c1.1,1.2,1.6,2.8,1.6,4.7c0,2.7-1.1,4.8-3.2,6.4c-2.1,1.6-4.9,2.4-8.5,2.4C965.8,140.7,963.7,140.4,961.9,139.6z"/>
	<path class="st0" d="M777.2,172.2h-21.1c-0.2,0-0.2,0.1-0.2,0.2v12.8c0,0.2,0.1,0.2,0.2,0.2h14.5c0.4,0,0.6,0.2,0.6,0.6v3.7
		c0,0.4-0.2,0.6-0.6,0.6h-14.5c-0.2,0-0.2,0.1-0.2,0.2v13.1c0,0.2,0.1,0.2,0.2,0.2h21.1c0.4,0,0.6,0.2,0.6,0.6v3.7
		c0,0.4-0.2,0.6-0.6,0.6h-26.4c-0.4,0-0.6-0.2-0.6-0.6v-40.4c0-0.4,0.2-0.6,0.6-0.6h26.4c0.4,0,0.6,0.2,0.6,0.6v3.7
		C777.8,172.1,777.6,172.2,777.2,172.2z"/>
	<path class="st0" d="M783,208.7c-0.1-0.1-0.1-0.3,0.1-0.5l9.9-14.2c0.1-0.1,0.1-0.2,0-0.4l-9.9-14.3l-0.1-0.3
		c0-0.3,0.2-0.4,0.5-0.4h4.8c0.3,0,0.6,0.1,0.7,0.4l7,10.2c0,0,0.1,0.1,0.2,0.1c0.1,0,0.1,0,0.2-0.1l6.9-10.2
		c0.2-0.2,0.4-0.4,0.7-0.4h5.2c0.2,0,0.4,0.1,0.5,0.2c0.1,0.1,0.1,0.3-0.1,0.5l-9.9,14.3c0,0.1,0,0.2,0,0.4l9.9,14.2l0.1,0.3
		c0,0.3-0.2,0.4-0.5,0.4h-4.9c-0.3,0-0.6-0.1-0.7-0.4l-6.9-10.2c0-0.1-0.1-0.1-0.2-0.1s-0.1,0-0.2,0.1l-7,10.2
		c-0.2,0.2-0.4,0.4-0.7,0.4h-5.1C783.2,208.9,783.1,208.8,783,208.7z"/>
	<path class="st0" d="M818.7,207.1c-2.1-1.5-3.6-3.6-4.4-6.2c-0.6-1.8-0.9-4.2-0.9-7.2c0-2.7,0.3-5.1,0.9-7.2
		c0.8-2.5,2.3-4.6,4.4-6.1c2.2-1.5,4.7-2.3,7.7-2.3c3,0,5.6,0.8,7.8,2.3c2.2,1.5,3.7,3.4,4.3,5.7c0.2,0.6,0.4,1.3,0.5,2
		c0,0.3-0.2,0.5-0.5,0.6l-4.5,0.7h-0.1c-0.3,0-0.5-0.2-0.6-0.5l-0.2-1c-0.3-1.3-1.1-2.5-2.3-3.4s-2.7-1.4-4.5-1.4
		c-1.7,0-3.1,0.5-4.3,1.4s-2,2.1-2.3,3.6c-0.4,1.4-0.5,3.3-0.5,5.6c0,2.3,0.2,4.2,0.5,5.6c0.4,1.6,1.2,2.8,2.3,3.7s2.6,1.4,4.3,1.4
		c1.7,0,3.2-0.5,4.5-1.4c1.2-0.9,2-2.1,2.3-3.6c0,0,0-0.1,0-0.1c0-0.1,0-0.1,0-0.1V199c0.1-0.3,0.3-0.4,0.7-0.4l4.5,0.7
		c0.3,0.1,0.5,0.2,0.5,0.5v0.2c0,0.4-0.1,0.8-0.3,1.3c-0.7,2.4-2.1,4.4-4.3,5.8c-2.2,1.5-4.8,2.2-7.8,2.2
		C823.4,209.4,820.8,208.6,818.7,207.1z"/>
	<path class="st0" d="M870.6,195.5c0,0.4-0.2,0.6-0.6,0.6H851c-0.2,0-0.2,0.1-0.2,0.2c0,1.3,0.1,2.4,0.4,3.1
		c0.4,1.6,1.3,2.8,2.6,3.7c1.3,0.9,3,1.3,5,1.3c2.9,0,5.2-1.2,6.8-3.6c0.2-0.4,0.5-0.5,0.8-0.2l3.4,2.3c0.3,0.2,0.3,0.5,0.2,0.8
		c-1.1,1.8-2.7,3.2-4.7,4.2c-2,1-4.3,1.5-6.9,1.5c-2.9,0-5.3-0.6-7.3-1.9c-2-1.3-3.5-3.1-4.5-5.4c-1-2.3-1.4-5.2-1.4-8.5
		c0-2.9,0.2-5.1,0.7-6.6c0.7-2.7,2.1-4.9,4.3-6.5c2.1-1.6,4.7-2.4,7.8-2.4c4,0,7,1,9,3c2,2,3.2,4.9,3.6,8.8
		C870.5,191.6,870.6,193.5,870.6,195.5z M853.6,184.4c-1.1,0.9-1.9,2-2.3,3.4c-0.3,0.9-0.5,2-0.5,3.3c0,0.2,0.1,0.2,0.2,0.2h13.6
		c0.2,0,0.2-0.1,0.2-0.2c-0.1-1.3-0.2-2.3-0.4-2.9c-0.4-1.5-1.2-2.8-2.3-3.7c-1.2-0.9-2.6-1.4-4.4-1.4
		C856.1,183.1,854.7,183.5,853.6,184.4z"/>
	<path class="st0" d="M878.3,208.3v-40.4c0-0.4,0.2-0.6,0.6-0.6h4.5c0.4,0,0.6,0.2,0.6,0.6v40.4c0,0.4-0.2,0.6-0.6,0.6h-4.5
		C878.5,208.9,878.3,208.7,878.3,208.3z"/>
	<path class="st0" d="M892.9,208.3v-40.4c0-0.4,0.2-0.6,0.6-0.6h4.5c0.4,0,0.6,0.2,0.6,0.6v40.4c0,0.4-0.2,0.6-0.6,0.6h-4.5
		C893.1,208.9,892.9,208.7,892.9,208.3z"/>
	<path class="st0" d="M932.1,195.5c0,0.4-0.2,0.6-0.6,0.6h-18.9c-0.2,0-0.2,0.1-0.2,0.2c0,1.3,0.1,2.4,0.4,3.1
		c0.4,1.6,1.3,2.8,2.6,3.7c1.3,0.9,3,1.3,5,1.3c2.9,0,5.2-1.2,6.8-3.6c0.2-0.4,0.5-0.5,0.8-0.2l3.4,2.3c0.3,0.2,0.3,0.5,0.2,0.8
		c-1.1,1.8-2.7,3.2-4.7,4.2c-2,1-4.3,1.5-6.9,1.5c-2.9,0-5.3-0.6-7.3-1.9c-2-1.3-3.5-3.1-4.5-5.4c-1-2.3-1.4-5.2-1.4-8.5
		c0-2.9,0.2-5.1,0.7-6.6c0.7-2.7,2.1-4.9,4.3-6.5c2.1-1.6,4.7-2.4,7.8-2.4c4,0,7,1,9,3c2,2,3.2,4.9,3.6,8.8
		C932.1,191.6,932.1,193.5,932.1,195.5z M915.1,184.4c-1.1,0.9-1.9,2-2.3,3.4c-0.3,0.9-0.5,2-0.5,3.3c0,0.2,0.1,0.2,0.2,0.2h13.6
		c0.2,0,0.2-0.1,0.2-0.2c-0.1-1.3-0.2-2.3-0.4-2.9c-0.4-1.5-1.2-2.8-2.3-3.7c-1.2-0.9-2.6-1.4-4.4-1.4
		C917.6,183.1,916.2,183.5,915.1,184.4z"/>
	<path class="st0" d="M961.1,181.1c1.9,1.9,2.9,4.4,2.9,7.6v19.6c0,0.4-0.2,0.6-0.6,0.6h-4.5c-0.4,0-0.6-0.2-0.6-0.6v-18.5
		c0-2-0.6-3.6-1.7-4.8c-1.1-1.2-2.7-1.8-4.6-1.8c-1.9,0-3.4,0.6-4.6,1.8c-1.2,1.2-1.8,2.8-1.8,4.8v18.5c0,0.4-0.2,0.6-0.6,0.6h-4.5
		c-0.4,0-0.6-0.2-0.6-0.6v-29c0-0.4,0.2-0.6,0.6-0.6h4.5c0.4,0,0.6,0.2,0.6,0.6v2.1c0,0.1,0,0.1,0.1,0.2c0.1,0,0.1,0,0.1-0.1
		c1.7-2.2,4.2-3.3,7.5-3.3C956.6,178.2,959.2,179.2,961.1,181.1z"/>
	<path class="st0" d="M976.7,207.1c-2.1-1.5-3.6-3.6-4.4-6.2c-0.6-1.8-0.9-4.2-0.9-7.2c0-2.7,0.3-5.1,0.9-7.2
		c0.8-2.5,2.3-4.6,4.4-6.1c2.2-1.5,4.7-2.3,7.7-2.3c3,0,5.6,0.8,7.8,2.3c2.2,1.5,3.7,3.4,4.3,5.7c0.2,0.6,0.4,1.3,0.5,2
		c0,0.3-0.2,0.5-0.5,0.6l-4.5,0.7h-0.1c-0.3,0-0.5-0.2-0.6-0.5l-0.2-1c-0.3-1.3-1.1-2.5-2.3-3.4s-2.7-1.4-4.5-1.4
		c-1.7,0-3.1,0.5-4.3,1.4s-2,2.1-2.3,3.6c-0.4,1.4-0.5,3.3-0.5,5.6c0,2.3,0.2,4.2,0.5,5.6c0.4,1.6,1.2,2.8,2.3,3.7s2.6,1.4,4.3,1.4
		c1.7,0,3.2-0.5,4.5-1.4c1.2-0.9,2-2.1,2.3-3.6c0,0,0-0.1,0-0.1c0-0.1,0-0.1,0-0.1V199c0.1-0.3,0.3-0.4,0.7-0.4l4.5,0.7
		c0.3,0.1,0.5,0.2,0.5,0.5v0.2c0,0.4-0.1,0.8-0.3,1.3c-0.7,2.4-2.1,4.4-4.3,5.8c-2.2,1.5-4.8,2.2-7.8,2.2
		C981.4,209.4,978.9,208.6,976.7,207.1z"/>
	<path class="st0" d="M1028.6,195.5c0,0.4-0.2,0.6-0.6,0.6H1009c-0.2,0-0.2,0.1-0.2,0.2c0,1.3,0.1,2.4,0.4,3.1
		c0.4,1.6,1.3,2.8,2.6,3.7c1.3,0.9,3,1.3,5,1.3c2.9,0,5.2-1.2,6.8-3.6c0.2-0.4,0.5-0.5,0.8-0.2l3.4,2.3c0.3,0.2,0.3,0.5,0.2,0.8
		c-1.1,1.8-2.7,3.2-4.7,4.2c-2,1-4.3,1.5-6.9,1.5c-2.9,0-5.3-0.6-7.3-1.9c-2-1.3-3.5-3.1-4.5-5.4c-1-2.3-1.4-5.2-1.4-8.5
		c0-2.9,0.2-5.1,0.7-6.6c0.7-2.7,2.1-4.9,4.3-6.5c2.1-1.6,4.7-2.4,7.8-2.4c4,0,7,1,9,3c2,2,3.2,4.9,3.6,8.8
		C1028.6,191.6,1028.6,193.5,1028.6,195.5z M1011.6,184.4c-1.1,0.9-1.9,2-2.3,3.4c-0.3,0.9-0.5,2-0.5,3.3c0,0.2,0.1,0.2,0.2,0.2
		h13.6c0.2,0,0.2-0.1,0.2-0.2c-0.1-1.3-0.2-2.3-0.4-2.9c-0.4-1.5-1.2-2.8-2.3-3.7c-1.2-0.9-2.6-1.4-4.4-1.4
		C1014.1,183.1,1012.7,183.5,1011.6,184.4z"/>
</g>
<g>
	<rect x="668" y="19.1" class="st0" width="1" height="202.9"/>
</g>
</svg>
